<svg xmlns="http://www.w3.org/2000/svg" viewBox="0 0 100 100"><defs><linearGradient x1="50%" y1="0%" x2="50%" y2="100%" id="linearGradientForkSpoon" gradientUnits="userSpaceOnUse"><stop stop-color="#8B00AF" offset="0%"></stop><stop stop-color="#D40062" offset="90%"></stop><stop stop-color="#FF0613" offset="100%"></stop></linearGradient></defs><path fill="white" fill-rule="evenodd" d="M99.954 28.203c.589 11.78-7.784 22.265-19.861 24.87V94.41c.17 1.223-.418 2.429-1.51 3.092a3.47 3.47 0 0 1-3.581 0c-1.092-.663-1.681-1.87-1.51-3.092V53.072c-12.24-2.441-20.822-12.97-20.27-24.869C52.39 15.105 62.84 3.834 76.588 3c13.749.834 24.198 12.105 23.366 25.203zM77.068 46.925c10.126-.94 17.584-9.348 16.763-18.898.821-9.55-6.637-17.959-16.763-18.898-10.103.967-17.528 9.367-16.705 18.898-.823 9.53 6.602 17.93 16.705 18.898zM43.463 3.54a3.362 3.362 0 0 1 3.3 3.364v16.703c.594 12.497-7.853 23.62-20.037 26.382v43.852a3.366 3.366 0 0 1-1.523 3.281 3.355 3.355 0 0 1-3.613 0 3.366 3.366 0 0 1-1.524-3.28V49.988C7.882 47.226-.564 36.104.03 23.607V6.904c0-.892.354-1.747.984-2.378A3.357 3.357 0 0 1 3.39 3.54a3.362 3.362 0 0 1 3.3 3.364v16.703c-.517 8.834 4.978 16.907 13.377 19.654V6.904a3.366 3.366 0 0 1 1.524-3.28 3.355 3.355 0 0 1 3.613 0 3.366 3.366 0 0 1 1.523 3.28v36.357c8.413-2.73 13.915-10.814 13.377-19.654V6.904a3.362 3.362 0 0 1 3.36-3.364z"></path></svg>
